<?xml version="1.0" standalone="no"?>
<!DOCTYPE svg PUBLIC "-//W3C//DTD SVG 20010904//EN"
 "http://www.w3.org/TR/2001/REC-SVG-20010904/DTD/svg10.dtd">
<svg version="1.0" xmlns="http://www.w3.org/2000/svg"
 width="261.000000pt" height="261.000000pt" viewBox="0 0 261.000000 261.000000"
 preserveAspectRatio="xMidYMid meet">
<metadata>
Created by potrace 1.11, written by Peter Selinger 2001-2013
</metadata>
<g transform="translate(0.000000,261.000000) scale(0.100000,-0.100000)"
fill="#000000" stroke="none">
<path d="M19 2588 c-1 -2 -2 -585 -3 -1296 l-1 -1292 1292 0 1293 0 0 1295 0
1295 -1290 0 c-710 0 -1291 -1 -1291 -2z m2496 -1295 l0 -1198 -1200 0 -1200
0 0 1198 0 1197 1200 0 1200 0 0 -1197z"/>
<path d="M383 2206 c-3 -5 -7 -160 -8 -345 -2 -290 1 -347 16 -416 27 -123 96
-356 109 -369 6 -6 45 -11 91 -11 94 0 101 6 120 94 7 31 14 61 15 66 26 99
84 362 88 400 4 28 9 66 11 85 7 50 7 429 0 465 -4 16 -9 32 -11 35 -10 9
-426 5 -431 -4z"/>
<path d="M1879 1626 c-2 -2 -20 -6 -39 -9 -88 -12 -186 -70 -267 -156 -106
-113 -161 -281 -150 -451 8 -110 13 -131 46 -212 64 -151 199 -268 356 -307
63 -16 206 -16 270 0 106 25 226 104 260 169 13 26 12 30 -41 111 -85 128 -80
125 -134 82 -157 -126 -340 -102 -417 55 -23 46 -28 72 -30 137 -3 124 39 212
126 263 37 21 57 26 115 26 80 0 136 -22 203 -80 44 -39 54 -41 75 -16 35 38
116 195 111 210 -17 49 -117 119 -216 152 -47 15 -100 23 -167 26 -53 1 -99 1
-101 0z"/>
<path d="M1131 1578 c-82 -14 -124 -60 -124 -134 0 -80 63 -134 156 -134 99 0
150 44 150 130 1 97 -78 157 -182 138z"/>
<path d="M1006 1211 c3 -20 7 -184 9 -364 1 -194 6 -332 12 -338 10 -10 247
-14 263 -4 6 4 9 105 8 258 -1 139 2 297 6 352 9 118 9 108 7 120 -1 6 -60 11
-157 11 l-155 1 7 -36z"/>
<path d="M525 937 c-108 -42 -156 -118 -151 -239 5 -130 86 -214 213 -223 143
-9 242 88 243 237 0 99 -39 172 -114 210 -48 24 -147 32 -191 15z"/>
</g>
</svg>
