<?xml version="1.0" standalone="no"?>
<!DOCTYPE svg PUBLIC "-//W3C//DTD SVG 20010904//EN"
 "http://www.w3.org/TR/2001/REC-SVG-20010904/DTD/svg10.dtd">
<svg version="1.0" xmlns="http://www.w3.org/2000/svg"
 width="268.000000pt" height="268.000000pt" viewBox="0 0 268.000000 268.000000"
 preserveAspectRatio="xMidYMid meet">
<metadata>
Created by potrace 1.11, written by Peter Selinger 2001-2013
</metadata>
<g transform="translate(0.000000,268.000000) scale(0.100000,-0.100000)"
fill="#000000" stroke="none">
<path d="M10 1340 l0 -1340 1335 0 1335 0 0 1340 0 1340 -1335 0 -1335 0 0
-1340z m2600 0 l0 -1260 -1260 0 -1260 0 0 1260 0 1260 1260 0 1260 0 0 -1260z"/>
<path d="M955 2411 c-292 -72 -485 -307 -485 -591 0 -173 74 -319 219 -434 55
-43 225 -115 307 -130 16 -3 40 -8 54 -11 14 -3 84 -14 155 -25 216 -34 413
-77 473 -105 172 -79 251 -184 257 -346 8 -191 -103 -335 -311 -405 -205 -69
-456 -16 -643 134 -143 115 -273 302 -357 511 -15 37 -15 38 -69 37 -30 -1
-56 -3 -56 -6 -6 -23 -2 -750 3 -751 52 -9 94 -2 115 19 32 32 99 60 154 65
67 6 136 -7 321 -62 196 -59 216 -62 335 -62 108 1 144 6 241 32 254 68 446
254 509 493 24 91 21 236 -6 322 -83 256 -318 422 -666 468 -34 5 -66 10 -180
31 -44 8 -96 17 -115 20 -244 39 -393 93 -470 168 -89 87 -100 243 -25 367 83
136 240 211 432 205 230 -8 415 -120 599 -362 24 -32 47 -62 52 -68 4 -5 23
-35 42 -65 19 -30 38 -58 43 -61 5 -3 32 -5 60 -4 l52 1 -1 35 c-1 37 -13 159
-19 189 -2 10 -7 50 -10 87 -4 37 -8 75 -10 83 -2 8 -7 42 -10 75 -3 33 -8 69
-10 80 -2 11 -4 30 -4 43 -1 23 -3 23 -78 19 -43 -3 -108 -11 -144 -19 -36 -8
-79 -14 -95 -12 -113 11 -149 16 -224 30 -130 24 -349 27 -435 5z m713 -135
c26 2 56 6 68 8 20 5 23 -3 48 -126 14 -72 24 -133 23 -135 -2 -2 -34 33 -71
77 -57 67 -98 107 -189 181 -5 4 10 3 33 -1 23 -4 63 -6 88 -4z m-1115 -401
c12 -187 115 -329 302 -416 98 -45 127 -55 190 -65 47 -8 143 -23 175 -29 19
-3 44 -7 55 -9 11 -2 42 -7 68 -10 27 -4 59 -9 70 -12 12 -2 38 -7 57 -10 19
-3 38 -8 41 -10 3 -2 21 -6 40 -9 214 -36 417 -156 474 -279 39 -85 49 -228
21 -303 -13 -38 -91 -163 -101 -163 -2 0 8 28 22 63 18 43 27 84 28 135 8 238
-171 406 -490 461 -106 18 -117 20 -164 27 -25 4 -53 8 -63 10 -9 1 -38 6 -65
10 -26 3 -57 8 -68 10 -11 2 -47 9 -80 15 -105 18 -178 41 -249 77 -169 87
-286 258 -289 422 -1 60 11 175 18 168 2 -2 5 -39 8 -83z m25 -1167 c26 -57
88 -146 140 -202 23 -25 42 -47 42 -49 0 -2 -14 -3 -32 -2 -50 3 -103 -14
-137 -46 -18 -16 -34 -29 -36 -29 -2 0 -4 83 -3 185 0 102 2 185 4 185 2 0 12
-19 22 -42z"/>
</g>
</svg>
