<?xml version="1.0" standalone="no"?>
<!DOCTYPE svg PUBLIC "-//W3C//DTD SVG 20010904//EN"
 "http://www.w3.org/TR/2001/REC-SVG-20010904/DTD/svg10.dtd">
<svg version="1.0" xmlns="http://www.w3.org/2000/svg"
 width="268.000000pt" height="268.000000pt" viewBox="0 0 268.000000 268.000000"
 preserveAspectRatio="xMidYMid meet">
<metadata>
Created by potrace 1.11, written by Peter Selinger 2001-2013
</metadata>
<g transform="translate(0.000000,268.000000) scale(0.100000,-0.100000)"
fill="#000000" stroke="none">
<path d="M10 1340 l0 -1340 1335 0 1335 0 0 1340 0 1340 -1335 0 -1335 0 0
-1340z m2600 0 l0 -1260 -1260 0 -1260 0 0 1260 0 1260 1260 0 1260 0 0 -1260z"/>
<path d="M199 2359 c-9 -5 -12 -111 -13 -410 -1 -349 1 -415 16 -484 9 -44 19
-91 21 -105 3 -14 15 -63 27 -110 12 -47 24 -96 26 -110 2 -14 11 -44 20 -66
16 -46 35 -54 120 -54 73 0 88 22 119 180 14 74 28 142 30 150 4 17 35 167 40
190 1 8 6 40 10 70 4 30 9 62 10 71 23 124 23 642 0 679 -2 4 -28 5 -57 2 -76
-6 -222 -6 -295 0 -34 2 -67 1 -74 -3z"/>
<path d="M1175 1745 c-221 -64 -347 -209 -347 -400 0 -121 23 -181 120 -312
80 -107 95 -139 95 -194 0 -90 -49 -140 -178 -180 -76 -23 -77 -23 -71 -54 11
-53 124 -272 144 -277 28 -8 157 38 220 78 198 127 285 352 212 547 -12 32
-56 109 -98 170 -86 126 -115 193 -101 240 18 62 78 99 167 101 23 1 42 6 43
11 2 18 -106 284 -116 289 -6 2 -46 -7 -90 -19z"/>
<path d="M1552 1719 l-23 -9 7 -152 c10 -213 10 -734 0 -970 l-8 -198 23 -8
c48 -18 531 -22 630 -6 125 22 235 91 276 176 57 115 70 210 47 337 -9 53 -53
132 -92 168 l-36 33 32 44 c18 25 43 68 56 96 53 115 16 312 -76 397 -30 29
-123 71 -173 79 -22 3 -44 9 -50 12 -16 10 -587 11 -613 1z m556 -294 c22 -13
36 -31 42 -55 17 -64 -1 -109 -56 -135 -46 -22 -196 -27 -216 -7 -16 16 -19
199 -3 212 28 23 185 13 233 -15z m-18 -507 c52 -16 78 -45 86 -94 8 -54 -10
-110 -43 -131 -37 -24 -233 -32 -252 -10 -9 11 -12 49 -12 123 1 58 3 109 6
113 7 12 176 11 215 -1z"/>
<path d="M325 871 c-99 -47 -139 -122 -139 -256 1 -106 21 -162 78 -217 67
-65 188 -76 268 -23 125 83 150 320 45 439 -63 71 -171 95 -252 57z"/>
</g>
</svg>
